HIERARCHY
ROOT Hips
{
    OFFSET   0.000000   0.000000   0.000000
    CHANNELS 6 Xposition Yposition Zposition Zrotation Xrotation Yrotation
    JOINT Chest
    {
        OFFSET   0.000000   8.007230   0.000000
        CHANNELS 3 Zrotation Xrotation Yrotation
        JOINT Chest2
        {
            OFFSET   0.000000  22.077100   0.000000
            CHANNELS 3 Zrotation Xrotation Yrotation
            JOINT Neck
            {
                OFFSET   0.000000  23.254700   0.000000
                CHANNELS 3 Zrotation Xrotation Yrotation
                JOINT Head
                {
                    OFFSET   0.000010  14.370000   1.956610
                    CHANNELS 3 Zrotation Xrotation Yrotation
                    End Site
                    {
                        OFFSET   0.000000  19.566000   0.000000
                    }
                }
            }
            JOINT LeftCollar
            {
                OFFSET   3.911900  19.017000  -0.467063
                CHANNELS 3 Zrotation Xrotation Yrotation
                JOINT LeftShoulder
                {
                    OFFSET  10.383700   0.000000   0.000000
                    CHANNELS 3 Zrotation Xrotation Yrotation
                    JOINT LeftElbow
                    {
                        OFFSET  26.662100   0.001671   0.000522
                        CHANNELS 3 Zrotation Xrotation Yrotation
                        JOINT LeftWrist
                        {
                            OFFSET  28.869000   0.000037  -0.000114
                            CHANNELS 3 Zrotation Xrotation Yrotation
                            JOINT LeftFinger0
                            {
                                OFFSET   2.044650  -2.323450   3.252850
                                CHANNELS 3 Zrotation Xrotation Yrotation
                                JOINT LeftFinger01
                                {
                                    OFFSET   3.088140   0.000000   0.000000
                                    CHANNELS 3 Zrotation Xrotation Yrotation
                                    JOINT LeftFinger02
                                    {
                                        OFFSET   2.639460   0.000000   0.000000
                                        CHANNELS 3 Zrotation Xrotation Yrotation
                                        End Site
                                        {
                                            OFFSET   2.582190   0.000000   0.000000
                                        }
                                    }
                                }
                            }
                            JOINT LeftFinger1
                            {
                                OFFSET   8.364480   0.000000   3.252850
                                CHANNELS 3 Zrotation Xrotation Yrotation
                                JOINT LeftFinger11
                                {
                                    OFFSET   4.646930   0.000000   0.000000
                                    CHANNELS 3 Zrotation Xrotation Yrotation
                                    JOINT LeftFinger12
                                    {
                                        OFFSET   2.323470   0.000000   0.000000
                                        CHANNELS 3 Zrotation Xrotation Yrotation
                                        End Site
                                        {
                                            OFFSET   2.273050   0.000000   0.000000
                                        }
                                    }
                                }
                            }
                            JOINT LeftFinger2
                            {
                                OFFSET   8.364490   0.000016   1.078090
                                CHANNELS 3 Zrotation Xrotation Yrotation
                                JOINT LeftFinger21
                                {
                                    OFFSET   5.111620   0.000000   0.000000
                                    CHANNELS 3 Zrotation Xrotation Yrotation
                                    JOINT LeftFinger22
                                    {
                                        OFFSET   2.788150   0.000013   0.000000
                                        CHANNELS 3 Zrotation Xrotation Yrotation
                                        End Site
                                        {
                                            OFFSET   2.727660   0.000000   0.000000
                                        }
                                    }
                                }
                            }
                            JOINT LeftFinger3
                            {
                                OFFSET   7.899780   0.000016  -1.078090
                                CHANNELS 3 Zrotation Xrotation Yrotation
                                JOINT LeftFinger31
                                {
                                    OFFSET   4.646930   0.000000   0.000000
                                    CHANNELS 3 Zrotation Xrotation Yrotation
                                    JOINT LeftFinger32
                                    {
                                        OFFSET   2.323470   0.000000   0.000000
                                        CHANNELS 3 Zrotation Xrotation Yrotation
                                        End Site
                                        {
                                            OFFSET   2.273050   0.000000   0.000000
                                        }
                                    }
                                }
                            }
                            JOINT LeftFinger4
                            {
                                OFFSET   7.435080   0.000000  -3.252850
                                CHANNELS 3 Zrotation Xrotation Yrotation
                                JOINT LeftFinger41
                                {
                                    OFFSET   3.717550   0.000000   0.000000
                                    CHANNELS 3 Zrotation Xrotation Yrotation
                                    JOINT LeftFinger42
                                    {
                                        OFFSET   1.858760   0.000000   0.000000
                                        CHANNELS 3 Zrotation Xrotation Yrotation
                                        End Site
                                        {
                                            OFFSET   1.818440   0.000000   0.000000
                                        }
                                    }
                                }
                            }
                        }
                    }
                }
            }
            JOINT RightCollar
            {
                OFFSET  -3.911900  19.017000  -0.467064
                CHANNELS 3 Zrotation Xrotation Yrotation
                JOINT RightShoulder
                {
                    OFFSET -10.383700   0.000000   0.000000
                    CHANNELS 3 Zrotation Xrotation Yrotation
                    JOINT RightElbow
                    {
                        OFFSET -26.662100   0.001633   0.000260
                        CHANNELS 3 Zrotation Xrotation Yrotation
                        JOINT RightWrist
                        {
                            OFFSET -28.869000  -0.000045  -0.000080
                            CHANNELS 3 Zrotation Xrotation Yrotation
                            JOINT RightFinger0
                            {
                                OFFSET  -2.044660  -2.323490   3.252850
                                CHANNELS 3 Zrotation Xrotation Yrotation
                                JOINT RightFinger01
                                {
                                    OFFSET  -3.088140   0.000000   0.000000
                                    CHANNELS 3 Zrotation Xrotation Yrotation
                                    JOINT RightFinger02
                                    {
                                        OFFSET  -2.639450   0.000000   0.000000
                                        CHANNELS 3 Zrotation Xrotation Yrotation
                                        End Site
                                        {
                                            OFFSET  -2.582190   0.000000   0.000000
                                        }
                                    }
                                }
                            }
                            JOINT RightFinger1
                            {
                                OFFSET  -8.364480   0.000000   3.252850
                                CHANNELS 3 Zrotation Xrotation Yrotation
                                JOINT RightFinger11
                                {
                                    OFFSET  -4.646920   0.000000   0.000000
                                    CHANNELS 3 Zrotation Xrotation Yrotation
                                    JOINT RightFinger12
                                    {
                                        OFFSET  -2.323470   0.000000   0.000000
                                        CHANNELS 3 Zrotation Xrotation Yrotation
                                        End Site
                                        {
                                            OFFSET  -2.273050   0.000000   0.000000
                                        }
                                    }
                                }
                            }
                            JOINT RightFinger2
                            {
                                OFFSET  -8.364480   0.000000   1.078090
                                CHANNELS 3 Zrotation Xrotation Yrotation
                                JOINT RightFinger21
                                {
                                    OFFSET  -5.111610   0.000000   0.000000
                                    CHANNELS 3 Zrotation Xrotation Yrotation
                                    JOINT RightFinger22
                                    {
                                        OFFSET  -2.788160   0.000000   0.000000
                                        CHANNELS 3 Zrotation Xrotation Yrotation
                                        End Site
                                        {
                                            OFFSET  -2.727660   0.000000   0.000000
                                        }
                                    }
                                }
                            }
                            JOINT RightFinger3
                            {
                                OFFSET  -7.899780   0.000000  -1.078090
                                CHANNELS 3 Zrotation Xrotation Yrotation
                                JOINT RightFinger31
                                {
                                    OFFSET  -4.646930   0.000000   0.000000
                                    CHANNELS 3 Zrotation Xrotation Yrotation
                                    JOINT RightFinger32
                                    {
                                        OFFSET  -2.323470   0.000000   0.000000
                                        CHANNELS 3 Zrotation Xrotation Yrotation
                                        End Site
                                        {
                                            OFFSET  -2.273050   0.000000   0.000000
                                        }
                                    }
                                }
                            }
                            JOINT RightFinger4
                            {
                                OFFSET  -7.435090   0.000000  -3.252850
                                CHANNELS 3 Zrotation Xrotation Yrotation
                                JOINT RightFinger41
                                {
                                    OFFSET  -3.717550   0.000000   0.000000
                                    CHANNELS 3 Zrotation Xrotation Yrotation
                                    JOINT RightFinger42
                                    {
                                        OFFSET  -1.858760   0.000000   0.000000
                                        CHANNELS 3 Zrotation Xrotation Yrotation
                                        End Site
                                        {
                                            OFFSET  -1.818440   0.000000   0.000000
                                        }
                                    }
                                }
                            }
                        }
                    }
                }
            }
        }
    }
    JOINT LeftHip
    {
        OFFSET   9.782990   0.000000   0.000000
        CHANNELS 3 Zrotation Xrotation Yrotation
        JOINT LeftKnee
        {
            OFFSET  -0.000063 -41.789100   0.001657
            CHANNELS 3 Zrotation Xrotation Yrotation
            JOINT LeftAnkle
            {
                OFFSET   0.000078 -41.133200  -0.000113
                CHANNELS 3 Zrotation Xrotation Yrotation
                JOINT LeftToe
                {
                    OFFSET   0.000000  -6.358970  14.674500
                    CHANNELS 3 Zrotation Xrotation Yrotation
                    End Site
                    {
                        OFFSET   0.000000   0.000000   3.913200
                    }
                }
            }
        }
    }
    JOINT RightHip
    {
        OFFSET  -9.782990   0.000000   0.000000
        CHANNELS 3 Zrotation Xrotation Yrotation
        JOINT RightKnee
        {
            OFFSET   0.000053 -41.789200   0.000277
            CHANNELS 3 Zrotation Xrotation Yrotation
            JOINT RightAnkle
            {
                OFFSET   0.000030 -41.133200  -0.000150
                CHANNELS 3 Zrotation Xrotation Yrotation
                JOINT RightToe
                {
                    OFFSET   0.000000  -6.358960  14.674500
                    CHANNELS 3 Zrotation Xrotation Yrotation
                    End Site
                    {
                        OFFSET   0.000000   0.000000   3.913200
                    }
                }
            }
        }
    }
}
MOTION
Frames: 4
Frame Time:   0.016667
  1.014600  89.902700   0.092612  -0.798898  -4.291100  -2.026130  -0.358205   4.849270   0.114495  -0.730122   9.697740   0.260951   0.404034  -0.364829   0.000537   0.675560  -0.740079   5.650180  -5.179040   0.614669   4.489910 -66.956400  22.760300  -2.905360  -4.684290  -7.429590 -18.354200   8.605720 -10.782500   7.116230  51.224400  41.313700 -83.164100 -16.510800   0.000722   0.008906  -3.255430  -0.000123  -0.001062 -29.924600   3.021810  -5.232860 -24.596700  -0.001359   0.000329 -17.217700   0.000000  -0.006044 -27.962300   2.840590  -5.333200 -32.636400  -0.008123  -0.001989 -21.735800  -0.004237  -0.009781 -24.965200  -0.540221   1.160180 -24.970600   0.002754   0.002243 -16.630500   0.006018   0.001919 -22.415800  -2.706430   6.530260 -33.855300   0.000712  -0.001210 -22.547600   0.004256   0.002586  13.361700   3.484960   8.283790  62.987100   9.962960  -0.506573   3.920880  -7.217230  11.994700 -16.969800 -15.779400  -4.839120 -34.742400  35.322800  71.371300  37.448400   0.002489  -0.001873  13.724200  -0.001004  -0.001649  35.971500   1.464510   2.016780  29.452300   0.003195   0.003210  20.619400   0.012141  -0.004262  28.660800  -1.920500  -3.520970  39.494400  -0.003359   0.000000  26.303300  -0.000227   0.000099  28.475000  -3.355360  -6.159340  38.215800  -0.004985   0.003106  25.461200  -0.000133   0.002651  38.270300  -4.356520  -5.498330  57.731300   0.005269  -0.007572  38.445500   0.002076  -0.004951   1.299210   4.116220   2.325700   0.614714   2.037280  12.330000  -5.689320  -3.247470   3.108030   0.000000   0.000000   0.000000   0.924081   4.181470  -8.795080  -0.429291   2.153730 -10.932300  -6.124000   0.491432   1.162260   0.000000   0.000000   0.000000
  0.977136  89.902800   0.074694  -0.809943  -4.310090  -2.031410  -0.349970   4.869110   0.107701  -0.713051   9.737450   0.246720   0.404032  -0.340607   0.000536   0.673674  -0.690944   5.661080  -5.179550   0.614666   4.502540 -66.956300  22.758000  -2.891800  -4.691020  -7.412740 -18.396200   8.579500 -10.821400   7.108220  51.161200  41.279200 -83.113800 -16.481900   0.000733   0.008917  -3.240990  -0.000123  -0.001064 -29.957900   3.037480  -5.252610 -24.624600  -0.001362   0.000328 -17.237300  -0.000030  -0.006043 -27.969100   2.853030  -5.354840 -32.692700  -0.008103  -0.001968 -21.773300  -0.004239  -0.009765 -24.982200  -0.531656   1.140980 -24.987500   0.002743   0.002243 -16.641800   0.006018   0.001919 -22.444100  -2.703190   6.513500 -33.897400   0.000702  -0.001206 -22.575700   0.004257   0.002579  13.360000   3.493510   8.291390  62.981500   9.967290  -0.499246   3.925040  -7.232830  12.001300 -16.955700 -15.787900  -4.826740 -34.760500  35.345300  71.394800  37.439800   0.002490  -0.001860  13.719900  -0.000999  -0.001648  35.965100   1.475870   2.033000  29.447500   0.003193   0.003210  20.615000   0.012145  -0.004263  28.661200  -1.920640  -3.509350  39.487100  -0.003362   0.000000  26.298400  -0.000230   0.000106  28.477400  -3.344070  -6.138380  38.221000  -0.004988   0.003095  25.461200  -0.000139   0.002654  38.273100  -4.341450  -5.479880  57.731500   0.005264  -0.007573  38.445500   0.002070  -0.004946   1.316210   4.119150   2.323280   0.617911   2.044210  12.332100  -5.696750  -3.234640   3.113140   0.000000   0.000000   0.000000   1.007820   4.166870  -8.818130  -0.494662   2.191380 -11.017900  -6.095230   0.464373   1.280920   0.000000   0.000000   0.000000
  0.915037  89.902800   0.043919  -0.827309  -4.341730  -2.042460  -0.337301   4.901970   0.096878  -0.686747   9.803280   0.224088   0.404014  -0.299446   0.000533   0.670387  -0.607435   5.679940  -5.180140   0.614702   4.523090 -66.958900  22.751300  -2.872030  -4.696720  -7.377120 -18.474600   8.535720 -10.894200   7.084270  51.098100  41.244700 -83.063600 -16.418600   0.000760   0.008936  -3.209320  -0.000127  -0.001065 -29.989400   3.062590  -5.289020 -24.652600  -0.001370   0.000327 -17.256800  -0.000085  -0.006042 -27.978300   2.874750  -5.393220 -32.772400  -0.008055  -0.001922 -21.826400  -0.004245  -0.009726 -24.999500  -0.512826   1.099880 -25.004400   0.002714   0.002243 -16.653000   0.006018   0.001919 -22.473900  -2.693350   6.480790 -33.939500   0.000678  -0.001194 -22.603800   0.004259   0.002561  13.357200   3.507180   8.305210  62.969300   9.971620  -0.486906   3.930690  -7.250100  12.015800 -16.935400 -15.796400  -4.808960 -34.781600  35.375100  71.417200  37.427200   0.002490  -0.001840  13.713600  -0.000994  -0.001645  35.955400   1.487220   2.049230  29.439900   0.003188   0.003210  20.607900   0.012156  -0.004266  28.661700  -1.920780  -3.497720  39.479800  -0.003370   0.000000  26.293500  -0.000239   0.000124  28.479900  -3.332790  -6.117420  38.230000  -0.004998   0.003063  25.461200  -0.000155   0.002660  38.276000  -4.326370  -5.461440  57.731700   0.005250  -0.007578  38.445400   0.002057  -0.004934   1.342240   4.122090   2.316280   0.624065   2.058660  12.340400  -5.708620  -3.213910   3.121960   0.000000   0.000000   0.000000   1.142640   4.142160  -8.841070  -0.601573   2.254430 -11.151800  -6.050870   0.421942   1.457170  -0.000000   0.000000   0.000000
  0.864915  89.902900   0.017316  -0.839362  -4.365660  -2.056900  -0.329317   4.927520   0.089738  -0.670150   9.854450   0.209194   0.403968  -0.263967   0.000519   0.668291  -0.535429   5.693550  -5.178250   0.619524   4.536750 -66.974300  22.735600  -2.860750  -4.685900  -7.329560 -18.555100   8.494420 -10.991000   7.042760  51.173600  41.284700 -83.120900 -16.341500   0.000793   0.008951  -3.170760  -0.000136  -0.001062 -29.958100   3.084640  -5.335880 -24.629100  -0.001383   0.000325 -17.240400  -0.000136  -0.006040 -27.981300   2.899430  -5.438560 -32.809700  -0.007983  -0.001856 -21.851200  -0.004253  -0.009667 -24.978700  -0.487742   1.047060 -24.983000   0.002668   0.002245 -16.638700   0.006018   0.001919 -22.458200  -2.674830   6.441660 -33.912600   0.000641  -0.001177 -22.585800   0.004262   0.002530  13.355100   3.516580   8.318150  62.952800   9.966850  -0.477838   3.940320  -7.250780  12.038100 -16.927800 -15.796000  -4.799900 -34.799100  35.391200  71.409000  37.421500   0.002488  -0.001834  13.710800  -0.000996  -0.001637  35.947800   1.486410   2.048560  29.433600   0.003180   0.003209  20.601200   0.012173  -0.004271  28.661600  -1.920740  -3.503130  39.480200  -0.003382   0.000000  26.293800  -0.000251   0.000154  28.479000  -3.336890  -6.124880  38.237900  -0.005019   0.003011  25.465200  -0.000178   0.002672  38.274900  -4.331980  -5.467870  57.731600   0.005225  -0.007588  38.445300   0.002035  -0.004916   1.358660   4.118320   2.304450   0.630752   2.077790  12.357200  -5.717180  -3.198650   3.130930   0.000000   0.000000   0.000000   1.244900   4.119870  -8.825770  -0.686020   2.307300 -11.250500  -6.023910   0.390195   1.555730   0.000000   0.000000  -0.000000
